# xmcd CD database file
# Copyright (C) 1993-1998 Ti Kan
#
# Track frame offsets:
#  150
#  13788
#  23740
#  37505
#  48185
#  57115
#  69655
#  79818
#  93608
#  102588
#  113873
#  127260
#
# Disc length: 1849 seconds
#
# Revision: 1
# Processed by: cddbd v1.4b41PL1 Copyright (c) Steve Scherf et al.
# Submitted via: KiC 2.1 - (C) 1996-1998 Alwin Hoogerdijk
#
DISCID=9a07370c
DTITLE=Patsy Cline - Sentimentally Yours
DYEAR=1900
DGENRE=
TTITLE0=She's Got You
TTITLE1=Heartaches
TTITLE2=That's My Desire
TTITLE3=Your Cheatin' Heart
TTITLE4=Anytime
TTITLE5=You Made Me Love You (I Didn't Want To Do It)
TTITLE6=Strange
TTITLE7=You Belong To Me
TTITLE8=You Were Only Fooling (While I Was Falling In Love)
TTITLE9=Half As Much
TTITLE10=I Can't Help It (If I'm Still In Love With You)
TTITLE11=Lonely Street
EXTD=
EXTT0=
EXTT1=
EXTT2=
EXTT3=
EXTT4=
EXTT5=
EXTT6=
EXTT7=
EXTT8=
EXTT9=
EXTT10=
EXTT11=
PLAYORDER=
